# Exported from Wings 3D 2.2.4
#mtllib arrow.mtl
o cone1
#49 vertices, 49 faces
v 1.00000000 5.86716735 -2.1705068e-16
v 0.92387953 5.86716735 0.38268343
v 0.70710678 5.86716735 0.70710678
v 0.38268343 5.86716735 0.92387953
v 1.1561061e-16 5.86716735 1.00000000
v -0.38268343 5.86716735 0.92387953
v -0.70710678 5.86716735 0.70710678
v -0.92387953 5.86716735 0.38268343
v -1.00000000 5.86716735 -9.4586002e-17
v -0.92387953 5.86716735 -0.38268343
v -0.70710678 5.86716735 -0.70710678
v -0.38268343 5.86716735 -0.92387953
v -1.2931875e-16 5.86716735 -1.00000000
v 0.38268343 5.86716735 -0.92387953
v 0.70710678 5.86716735 -0.70710678
v 0.92387953 5.86716735 -0.38268343
v 5.4378271e-17 7.86716735 -2.1705068e-16
v 0.50600000 5.86716735 -1.4715131e-16
v 0.46748304 5.86716735 0.19363782
v 0.35779603 5.86716735 0.35779603
v 0.19363782 5.86716735 0.46748304
v 1.1561061e-16 5.86716735 0.50600000
v -0.19363782 5.86716735 0.46748304
v -0.35779603 5.86716735 0.35779603
v -0.46748304 5.86716735 0.19363782
v -0.50600000 5.86716735 -1.5749543e-16
v -0.46748304 5.86716735 -0.19363782
v -0.35779603 5.86716735 -0.35779603
v -0.19363782 5.86716735 -0.46748304
v -5.2429444e-17 5.86716735 -0.50600000
v 0.19363782 5.86716735 -0.46748304
v 0.35779603 5.86716735 -0.35779603
v 0.46748304 5.86716735 -0.19363782
v 0.50600000 2.3967347e-2 4.7356272e-16
v 0.46748304 2.3967347e-2 0.19363782
v 0.35779603 2.3967347e-2 0.35779603
v 0.19363782 2.3967347e-2 0.46748304
v 1.1561061e-16 2.3967347e-2 0.50600000
v -0.19363782 2.3967347e-2 0.46748304
v -0.35779603 2.3967347e-2 0.35779603
v -0.46748304 2.3967347e-2 0.19363782
v -0.50600000 2.3967347e-2 4.6321860e-16
v -0.46748304 2.3967347e-2 -0.19363782
v -0.35779603 2.3967347e-2 -0.35779603
v -0.19363782 2.3967347e-2 -0.46748304
v -5.2429444e-17 2.3967347e-2 -0.50600000
v 0.19363782 2.3967347e-2 -0.46748304
v 0.35779603 2.3967347e-2 -0.35779603
v 0.46748304 2.3967347e-2 -0.19363782
vn 0.84395684 -0.53641108 5.3201305e-16
vn 0.77971445 -0.53641108 0.32296830
vn 0.59676761 -0.53641108 0.59676761
vn 0.32296830 -0.53641108 0.77971445
vn 0.0000000e+0 -0.53641108 0.84395684
vn -0.32296830 -0.53641108 0.77971445
vn -0.59676761 -0.53641108 0.59676761
vn -0.77971445 -0.53641108 0.32296830
vn -0.84395684 -0.53641108 2.3940587e-16
vn -0.77971445 -0.53641108 -0.32296830
vn -0.59676761 -0.53641108 -0.59676761
vn -0.32296830 -0.53641108 -0.77971445
vn -1.9950489e-16 -0.53641108 -0.84395684
vn 0.32296830 -0.53641108 -0.77971445
vn 0.59676761 -0.53641108 -0.59676761
vn 0.77971445 -0.53641108 -0.32296830
vn -1.7335435e-16 1.00000000 9.0617045e-17
vn 0.70021451 -0.71393252 -9.9078040e-18
vn 0.64691385 -0.71393252 0.26796049
vn 0.49512643 -0.71393252 0.49512643
vn 0.26796049 -0.71393252 0.64691385
vn -7.9262432e-17 -0.71393252 0.70021451
vn -0.26796049 -0.71393252 0.64691385
vn -0.49512643 -0.71393252 0.49512643
vn -0.64691385 -0.71393252 0.26796049
vn -0.70021451 -0.71393252 1.1889365e-16
vn -0.64691385 -0.71393252 -0.26796049
vn -0.49512643 -0.71393252 -0.49512643
vn -0.26796049 -0.71393252 -0.64691385
vn -9.9078040e-17 -0.71393252 -0.70021451
vn 0.26796049 -0.71393252 -0.64691385
vn 0.49512643 -0.71393252 -0.49512643
vn 0.64691385 -0.71393252 -0.26796049
vn 0.89090915 -0.45418155 -1.2606070e-17
vn 0.82309273 -0.45418155 0.34093617
vn 0.62996790 -0.45418155 0.62996790
vn 0.34093617 -0.45418155 0.82309273
vn -1.0084856e-16 -0.45418155 0.89090915
vn -0.34093617 -0.45418155 0.82309273
vn -0.62996790 -0.45418155 0.62996790
vn -0.82309273 -0.45418155 0.34093617
vn -0.89090915 -0.45418155 1.5127284e-16
vn -0.82309273 -0.45418155 -0.34093617
vn -0.62996790 -0.45418155 -0.62996790
vn -0.34093617 -0.45418155 -0.82309273
vn -1.2606070e-16 -0.45418155 -0.89090915
vn 0.34093617 -0.45418155 -0.82309273
vn 0.62996790 -0.45418155 -0.62996790
vn 0.82309273 -0.45418155 -0.34093617
g cone1_default
usemtl default
s 1
f 1//1 17//17 2//2
f 1//1 18//18 33//33 16//16
f 2//2 17//17 3//3
f 2//2 19//19 18//18 1//1
f 3//3 17//17 4//4
f 3//3 20//20 19//19 2//2
f 4//4 17//17 5//5
f 4//4 21//21 20//20 3//3
f 5//5 17//17 6//6
f 5//5 22//22 21//21 4//4
f 6//6 17//17 7//7
f 6//6 23//23 22//22 5//5
f 7//7 17//17 8//8
f 7//7 24//24 23//23 6//6
f 8//8 17//17 9//9
f 8//8 25//25 24//24 7//7
f 9//9 17//17 10//10
f 9//9 26//26 25//25 8//8
f 10//10 17//17 11//11
f 10//10 27//27 26//26 9//9
f 11//11 17//17 12//12
f 11//11 28//28 27//27 10//10
f 12//12 17//17 13//13
f 12//12 29//29 28//28 11//11
f 13//13 17//17 14//14
f 13//13 30//30 29//29 12//12
f 14//14 17//17 15//15
f 14//14 31//31 30//30 13//13
f 15//15 17//17 16//16
f 15//15 32//32 31//31 14//14
f 16//16 17//17 1//1
f 16//16 33//33 32//32 15//15
f 18//18 34//34 49//49 33//33
f 19//19 35//35 34//34 18//18
f 20//20 36//36 35//35 19//19
f 21//21 37//37 36//36 20//20
f 22//22 38//38 37//37 21//21
f 23//23 39//39 38//38 22//22
f 24//24 40//40 39//39 23//23
f 25//25 41//41 40//40 24//24
f 26//26 42//42 41//41 25//25
f 27//27 43//43 42//42 26//26
f 28//28 44//44 43//43 27//27
f 29//29 45//45 44//44 28//28
f 30//30 46//46 45//45 29//29
f 31//31 47//47 46//46 30//30
f 32//32 48//48 47//47 31//31
f 33//33 49//49 48//48 32//32
f 35//35 36//36 37//37 38//38 39//39 40//40 41//41 42//42 43//43 44//44 45//45 46//46 47//47 48//48 49//49 34//34
